<mxfile host="65bd71144e">
    <diagram id="2HZyWjy0fr6DkIYrPwHL" name="Page-1">
        <mxGraphModel dx="449" dy="486" grid="1" gridSize="10" guides="1" tooltips="1" connect="1" arrows="1" fold="1" page="1" pageScale="1" pageWidth="850" pageHeight="1100" math="0" shadow="0">
            <root>
                <mxCell id="0"/>
                <mxCell id="1" parent="0"/>
                <mxCell id="2" value="User" style="swimlane;fontStyle=0;childLayout=stackLayout;horizontal=1;startSize=30;horizontalStack=0;resizeParent=1;resizeParentMax=0;resizeLast=0;collapsible=1;marginBottom=0;" parent="1" vertex="1">
                    <mxGeometry x="60" y="40" width="140" height="150" as="geometry"/>
                </mxCell>
                <mxCell id="3" value=":id                            int" style="text;strokeColor=none;fillColor=#99CCFF;align=center;verticalAlign=middle;spacingLeft=4;spacingRight=4;overflow=hidden;points=[[0,0.5],[1,0.5]];portConstraint=eastwest;rotatable=0;" parent="2" vertex="1">
                    <mxGeometry y="30" width="140" height="30" as="geometry"/>
                </mxCell>
                <mxCell id="4" value=":username               str" style="text;strokeColor=none;fillColor=#99CCFF;align=center;verticalAlign=middle;spacingLeft=4;spacingRight=4;overflow=hidden;points=[[0,0.5],[1,0.5]];portConstraint=eastwest;rotatable=0;" parent="2" vertex="1">
                    <mxGeometry y="60" width="140" height="30" as="geometry"/>
                </mxCell>
                <mxCell id="8" value=":wallet                    float" style="text;strokeColor=none;fillColor=#99CCFF;align=center;verticalAlign=middle;spacingLeft=4;spacingRight=4;overflow=hidden;points=[[0,0.5],[1,0.5]];portConstraint=eastwest;rotatable=0;" parent="2" vertex="1">
                    <mxGeometry y="90" width="140" height="30" as="geometry"/>
                </mxCell>
                <mxCell id="7" value=":member_points         int" style="text;strokeColor=none;fillColor=#99CCFF;align=center;verticalAlign=middle;spacingLeft=4;spacingRight=4;overflow=hidden;points=[[0,0.5],[1,0.5]];portConstraint=eastwest;rotatable=0;" parent="2" vertex="1">
                    <mxGeometry y="120" width="140" height="30" as="geometry"/>
                </mxCell>
                <mxCell id="9" value="Drink" style="swimlane;fontStyle=0;childLayout=stackLayout;horizontal=1;startSize=30;horizontalStack=0;resizeParent=1;resizeParentMax=0;resizeLast=0;collapsible=1;marginBottom=0;" parent="1" vertex="1">
                    <mxGeometry x="280" y="120" width="140" height="150" as="geometry"/>
                </mxCell>
                <mxCell id="10" value=":id                                int" style="text;strokeColor=none;fillColor=#6666FF;align=center;verticalAlign=middle;spacingLeft=4;spacingRight=4;overflow=hidden;points=[[0,0.5],[1,0.5]];portConstraint=eastwest;rotatable=0;" parent="9" vertex="1">
                    <mxGeometry y="30" width="140" height="30" as="geometry"/>
                </mxCell>
                <mxCell id="15" value=":user_id                       int" style="text;strokeColor=none;fillColor=#6666FF;align=center;verticalAlign=middle;spacingLeft=4;spacingRight=4;overflow=hidden;points=[[0,0.5],[1,0.5]];portConstraint=eastwest;rotatable=0;" parent="9" vertex="1">
                    <mxGeometry y="60" width="140" height="30" as="geometry"/>
                </mxCell>
                <mxCell id="78" value=":size                           str" style="text;strokeColor=none;fillColor=#6666FF;align=center;verticalAlign=middle;spacingLeft=4;spacingRight=4;overflow=hidden;points=[[0,0.5],[1,0.5]];portConstraint=eastwest;rotatable=0;" parent="9" vertex="1">
                    <mxGeometry y="90" width="140" height="30" as="geometry"/>
                </mxCell>
                <mxCell id="29" value=":favorite                    bool" style="text;strokeColor=none;fillColor=#6666FF;align=center;verticalAlign=middle;spacingLeft=4;spacingRight=4;overflow=hidden;points=[[0,0.5],[1,0.5]];portConstraint=eastwest;rotatable=0;" parent="9" vertex="1">
                    <mxGeometry y="120" width="140" height="30" as="geometry"/>
                </mxCell>
                <mxCell id="16" value="" style="edgeStyle=elbowEdgeStyle;elbow=horizontal;endArrow=classic;html=1;exitX=1;exitY=0.5;exitDx=0;exitDy=0;entryX=0;entryY=0.5;entryDx=0;entryDy=0;" parent="1" source="3" target="15" edge="1">
                    <mxGeometry width="50" height="50" relative="1" as="geometry">
                        <mxPoint x="270" y="360" as="sourcePoint"/>
                        <mxPoint x="320" y="310" as="targetPoint"/>
                    </mxGeometry>
                </mxCell>
                <mxCell id="41" value="&lt;font style=&quot;font-size: 14px&quot;&gt;1&lt;/font&gt;" style="edgeLabel;html=1;align=center;verticalAlign=middle;resizable=0;points=[];" parent="16" vertex="1" connectable="0">
                    <mxGeometry x="-0.8303" y="3" relative="1" as="geometry">
                        <mxPoint as="offset"/>
                    </mxGeometry>
                </mxCell>
                <mxCell id="42" value="&lt;font style=&quot;font-size: 18px&quot;&gt;*&lt;/font&gt;" style="edgeLabel;html=1;align=center;verticalAlign=middle;resizable=0;points=[];" parent="16" vertex="1" connectable="0">
                    <mxGeometry x="0.7411" y="5" relative="1" as="geometry">
                        <mxPoint as="offset"/>
                    </mxGeometry>
                </mxCell>
                <mxCell id="17" value="Ingredients" style="swimlane;fontStyle=0;childLayout=stackLayout;horizontal=1;startSize=30;horizontalStack=0;resizeParent=1;resizeParentMax=0;resizeLast=0;collapsible=1;marginBottom=0;" parent="1" vertex="1">
                    <mxGeometry x="680" y="120" width="140" height="180" as="geometry"/>
                </mxCell>
                <mxCell id="18" value=":id                             int" style="text;strokeColor=none;fillColor=#6666FF;align=center;verticalAlign=middle;spacingLeft=4;spacingRight=4;overflow=hidden;points=[[0,0.5],[1,0.5]];portConstraint=eastwest;rotatable=0;" parent="17" vertex="1">
                    <mxGeometry y="30" width="140" height="30" as="geometry"/>
                </mxCell>
                <mxCell id="19" value=":name                        str" style="text;strokeColor=none;fillColor=#6666FF;align=center;verticalAlign=middle;spacingLeft=4;spacingRight=4;overflow=hidden;points=[[0,0.5],[1,0.5]];portConstraint=eastwest;rotatable=0;" parent="17" vertex="1">
                    <mxGeometry y="60" width="140" height="30" as="geometry"/>
                </mxCell>
                <mxCell id="81" value=":category                     str" style="text;strokeColor=none;fillColor=#6666FF;align=center;verticalAlign=middle;spacingLeft=4;spacingRight=4;overflow=hidden;points=[[0,0.5],[1,0.5]];portConstraint=eastwest;rotatable=0;" parent="17" vertex="1">
                    <mxGeometry y="90" width="140" height="30" as="geometry"/>
                </mxCell>
                <mxCell id="34" value=":cost                         float" style="text;strokeColor=none;fillColor=#6666FF;align=center;verticalAlign=middle;spacingLeft=4;spacingRight=4;overflow=hidden;points=[[0,0.5],[1,0.5]];portConstraint=eastwest;rotatable=0;" parent="17" vertex="1">
                    <mxGeometry y="120" width="140" height="30" as="geometry"/>
                </mxCell>
                <mxCell id="22" value=":points                         int" style="text;strokeColor=none;fillColor=#6666FF;align=center;verticalAlign=middle;spacingLeft=4;spacingRight=4;overflow=hidden;points=[[0,0.5],[1,0.5]];portConstraint=eastwest;rotatable=0;" parent="17" vertex="1">
                    <mxGeometry y="150" width="140" height="30" as="geometry"/>
                </mxCell>
                <mxCell id="30" value="Customization" style="swimlane;fontStyle=0;childLayout=stackLayout;horizontal=1;startSize=30;horizontalStack=0;resizeParent=1;resizeParentMax=0;resizeLast=0;collapsible=1;marginBottom=0;fillColor=#2A2A2A;" parent="1" vertex="1">
                    <mxGeometry x="480" y="190" width="140" height="120" as="geometry"/>
                </mxCell>
                <mxCell id="76" value=":id                              int" style="text;strokeColor=none;fillColor=#3333FF;align=center;verticalAlign=middle;spacingLeft=4;spacingRight=4;overflow=hidden;points=[[0,0.5],[1,0.5]];portConstraint=eastwest;rotatable=0;" parent="30" vertex="1">
                    <mxGeometry y="30" width="140" height="30" as="geometry"/>
                </mxCell>
                <mxCell id="21" value=":ingredient_id             int" style="text;strokeColor=none;fillColor=#3333FF;align=center;verticalAlign=middle;spacingLeft=4;spacingRight=4;overflow=hidden;points=[[0,0.5],[1,0.5]];portConstraint=eastwest;rotatable=0;gradientColor=#6666FF;gradientDirection=south;" parent="30" vertex="1">
                    <mxGeometry y="60" width="140" height="30" as="geometry"/>
                </mxCell>
                <mxCell id="20" value=":drink_id                      int" style="text;strokeColor=none;fillColor=#3333FF;align=center;verticalAlign=middle;spacingLeft=4;spacingRight=4;overflow=hidden;points=[[0,0.5],[1,0.5]];portConstraint=eastwest;rotatable=0;gradientColor=#6666FF;gradientDirection=north;" parent="30" vertex="1">
                    <mxGeometry y="90" width="140" height="30" as="geometry"/>
                </mxCell>
                <mxCell id="36" value="" style="edgeStyle=elbowEdgeStyle;elbow=horizontal;endArrow=classic;html=1;exitX=1;exitY=0.5;exitDx=0;exitDy=0;entryX=0;entryY=0.5;entryDx=0;entryDy=0;" parent="1" source="10" target="20" edge="1">
                    <mxGeometry width="50" height="50" relative="1" as="geometry">
                        <mxPoint x="400" y="360" as="sourcePoint"/>
                        <mxPoint x="480" y="330" as="targetPoint"/>
                        <Array as="points">
                            <mxPoint x="450" y="225"/>
                        </Array>
                    </mxGeometry>
                </mxCell>
                <mxCell id="43" value="&lt;font style=&quot;font-size: 14px&quot;&gt;1&lt;/font&gt;" style="edgeLabel;html=1;align=center;verticalAlign=middle;resizable=0;points=[];" parent="36" vertex="1" connectable="0">
                    <mxGeometry x="-0.8199" y="1" relative="1" as="geometry">
                        <mxPoint as="offset"/>
                    </mxGeometry>
                </mxCell>
                <mxCell id="44" value="&lt;font style=&quot;font-size: 18px&quot;&gt;*&lt;/font&gt;" style="edgeLabel;html=1;align=center;verticalAlign=middle;resizable=0;points=[];" parent="36" vertex="1" connectable="0">
                    <mxGeometry x="0.686" y="3" relative="1" as="geometry">
                        <mxPoint as="offset"/>
                    </mxGeometry>
                </mxCell>
                <mxCell id="37" value="" style="edgeStyle=elbowEdgeStyle;elbow=horizontal;endArrow=classic;html=1;exitX=0;exitY=0.5;exitDx=0;exitDy=0;entryX=1;entryY=0.5;entryDx=0;entryDy=0;" parent="1" source="18" target="21" edge="1">
                    <mxGeometry width="50" height="50" relative="1" as="geometry">
                        <mxPoint x="690" y="320" as="sourcePoint"/>
                        <mxPoint x="650" y="280" as="targetPoint"/>
                    </mxGeometry>
                </mxCell>
                <mxCell id="46" value="&lt;font style=&quot;font-size: 14px&quot;&gt;1&lt;/font&gt;" style="edgeLabel;html=1;align=center;verticalAlign=middle;resizable=0;points=[];fontSize=18;" parent="37" vertex="1" connectable="0">
                    <mxGeometry x="-0.8488" y="2" relative="1" as="geometry">
                        <mxPoint as="offset"/>
                    </mxGeometry>
                </mxCell>
                <mxCell id="47" value="*" style="edgeLabel;html=1;align=center;verticalAlign=middle;resizable=0;points=[];fontSize=18;" parent="37" vertex="1" connectable="0">
                    <mxGeometry x="0.7512" y="-3" relative="1" as="geometry">
                        <mxPoint as="offset"/>
                    </mxGeometry>
                </mxCell>
                <mxCell id="50" value="Component Map" style="swimlane;startSize=30;horizontal=0;childLayout=treeLayout;horizontalTree=1;resizable=0;containerType=tree;fillStyle=solid;fontSize=14;fontColor=#CCCCCC;strokeWidth=4;fillColor=#6666FF;gradientColor=none;gradientDirection=north;" parent="1" vertex="1">
                    <mxGeometry x="90" y="450" width="850" height="464" as="geometry"/>
                </mxCell>
                <mxCell id="51" value="App" style="whiteSpace=wrap;html=1;fillStyle=solid;fontSize=14;fontColor=#000000;strokeWidth=4;fillColor=#6666FF;gradientColor=none;gradientDirection=north;" parent="50" vertex="1">
                    <mxGeometry x="50" y="212" width="100" height="40" as="geometry"/>
                </mxCell>
                <mxCell id="52" value="Home&lt;br&gt;(featured drinks, greeting)" style="whiteSpace=wrap;html=1;fillStyle=solid;fontSize=14;fontColor=#000000;strokeWidth=4;fillColor=#6666FF;gradientColor=none;gradientDirection=north;" parent="50" vertex="1">
                    <mxGeometry x="200" y="20" width="210" height="40" as="geometry"/>
                </mxCell>
                <mxCell id="53" value="" style="edgeStyle=elbowEdgeStyle;elbow=horizontal;html=1;rounded=0;fontSize=14;fontColor=#000000;" parent="50" source="51" target="52" edge="1">
                    <mxGeometry relative="1" as="geometry"/>
                </mxCell>
                <mxCell id="54" value="Drink Builder" style="whiteSpace=wrap;html=1;fillStyle=solid;fontSize=14;fontColor=#000000;strokeWidth=4;fillColor=#6666FF;gradientColor=none;gradientDirection=north;" parent="50" vertex="1">
                    <mxGeometry x="200" y="132" width="210" height="40" as="geometry"/>
                </mxCell>
                <mxCell id="55" value="" style="edgeStyle=elbowEdgeStyle;elbow=horizontal;html=1;rounded=0;fontSize=14;fontColor=#000000;" parent="50" source="51" target="54" edge="1">
                    <mxGeometry relative="1" as="geometry"/>
                </mxCell>
                <mxCell id="82" value="Menu Bar" style="whiteSpace=wrap;html=1;fillStyle=solid;fontSize=14;fontColor=#000000;strokeWidth=4;fillColor=#6666FF;gradientColor=none;gradientDirection=north;" parent="50" vertex="1">
                    <mxGeometry x="200" y="292" width="210" height="40" as="geometry"/>
                </mxCell>
                <mxCell id="84" value="" style="edgeStyle=elbowEdgeStyle;elbow=horizontal;html=1;rounded=0;fontSize=14;fontColor=#000000;entryX=0;entryY=0.5;entryDx=0;entryDy=0;exitX=1;exitY=0.5;exitDx=0;exitDy=0;" parent="50" source="51" target="82" edge="1">
                    <mxGeometry relative="1" as="geometry">
                        <mxPoint x="160" y="-382" as="sourcePoint"/>
                        <mxPoint x="210" y="-422" as="targetPoint"/>
                    </mxGeometry>
                </mxCell>
                <mxCell id="85" value="log in/out" style="whiteSpace=wrap;html=1;fillStyle=solid;fontSize=14;fontColor=#000000;strokeWidth=4;fillColor=#6666FF;gradientColor=none;gradientDirection=north;" parent="50" vertex="1">
                    <mxGeometry x="460" y="252" width="160" height="40" as="geometry"/>
                </mxCell>
                <mxCell id="86" value="" style="edgeStyle=elbowEdgeStyle;elbow=horizontal;html=1;rounded=0;fontSize=14;fontColor=#000000;" parent="50" source="82" target="85" edge="1">
                    <mxGeometry relative="1" as="geometry">
                        <mxPoint x="300" y="-312.5" as="sourcePoint"/>
                        <mxPoint x="350" y="-312.5" as="targetPoint"/>
                    </mxGeometry>
                </mxCell>
                <mxCell id="87" value="Cart" style="whiteSpace=wrap;html=1;fillStyle=solid;fontSize=14;fontColor=#000000;strokeWidth=4;fillColor=#6666FF;gradientColor=none;gradientDirection=north;" parent="50" vertex="1">
                    <mxGeometry x="200" y="404" width="210" height="40" as="geometry"/>
                </mxCell>
                <mxCell id="88" value="" style="edgeStyle=elbowEdgeStyle;elbow=horizontal;html=1;rounded=0;fontSize=14;fontColor=#000000;entryX=0;entryY=0.5;entryDx=0;entryDy=0;exitX=1;exitY=0.5;exitDx=0;exitDy=0;" parent="50" source="51" target="87" edge="1">
                    <mxGeometry relative="1" as="geometry">
                        <mxPoint x="160" y="-382" as="sourcePoint"/>
                        <mxPoint x="210" y="-302" as="targetPoint"/>
                    </mxGeometry>
                </mxCell>
                <mxCell id="94" value="NavBar" style="whiteSpace=wrap;html=1;fillStyle=solid;fontSize=14;fontColor=#000000;strokeWidth=4;fillColor=#6666FF;gradientColor=none;gradientDirection=north;" parent="50" vertex="1">
                    <mxGeometry x="460" y="332" width="160" height="40" as="geometry"/>
                </mxCell>
                <mxCell id="95" value="" style="edgeStyle=elbowEdgeStyle;elbow=horizontal;html=1;rounded=0;fontSize=14;fontColor=#000000;exitX=1;exitY=0.5;exitDx=0;exitDy=0;entryX=0;entryY=0.5;entryDx=0;entryDy=0;" parent="50" source="82" target="94" edge="1">
                    <mxGeometry relative="1" as="geometry">
                        <mxPoint x="310" y="-66" as="sourcePoint"/>
                        <mxPoint x="360" y="-66" as="targetPoint"/>
                    </mxGeometry>
                </mxCell>
                <mxCell id="105" style="edgeStyle=none;html=1;" edge="1" parent="50" source="100" target="104">
                    <mxGeometry relative="1" as="geometry"/>
                </mxCell>
                <mxCell id="100" value="Drink Display" style="whiteSpace=wrap;html=1;fillStyle=solid;fontSize=14;fontColor=#000000;strokeWidth=4;fillColor=#6666FF;gradientColor=none;gradientDirection=north;" parent="50" vertex="1">
                    <mxGeometry x="460" y="172" width="160" height="40" as="geometry"/>
                </mxCell>
                <mxCell id="101" value="Customizer" style="whiteSpace=wrap;html=1;fillStyle=solid;fontSize=14;fontColor=#000000;strokeWidth=4;fillColor=#6666FF;gradientColor=none;gradientDirection=north;" parent="50" vertex="1">
                    <mxGeometry x="460" y="92" width="160" height="40" as="geometry"/>
                </mxCell>
                <mxCell id="102" value="" style="edgeStyle=elbowEdgeStyle;elbow=horizontal;html=1;rounded=0;fontSize=14;fontColor=#000000;exitX=1;exitY=0.5;exitDx=0;exitDy=0;entryX=0;entryY=0.5;entryDx=0;entryDy=0;" parent="50" source="54" target="101" edge="1">
                    <mxGeometry relative="1" as="geometry">
                        <mxPoint x="420" y="90" as="sourcePoint"/>
                        <mxPoint x="470" y="130" as="targetPoint"/>
                    </mxGeometry>
                </mxCell>
                <mxCell id="103" value="" style="edgeStyle=elbowEdgeStyle;elbow=horizontal;html=1;rounded=0;fontSize=14;fontColor=#000000;entryX=0;entryY=0.5;entryDx=0;entryDy=0;exitX=1;exitY=0.5;exitDx=0;exitDy=0;" parent="50" source="54" target="100" edge="1">
                    <mxGeometry relative="1" as="geometry">
                        <mxPoint x="420" y="90" as="sourcePoint"/>
                        <mxPoint x="450" y="28" as="targetPoint"/>
                    </mxGeometry>
                </mxCell>
                <mxCell id="104" value="Drink" style="whiteSpace=wrap;html=1;fillStyle=solid;fontSize=14;fontColor=#000000;strokeWidth=4;fillColor=#6666FF;gradientColor=none;gradientDirection=north;" vertex="1" parent="50">
                    <mxGeometry x="670" y="172" width="160" height="40" as="geometry"/>
                </mxCell>
            </root>
        </mxGraphModel>
    </diagram>
</mxfile>